# xmcd
#
# Track frame offsets:
#	150
#	12218
#	22748
#	40397
#	57798
#	81130
#	104813
#	125824
#	138755
#	159116
#	180152
#	197566
#
# Disc length: 2863 seconds
#
# Revision: 0
# Processed by: cddbd v1.5.2PL0 Copyright (c) Steve Scherf et al.
# Submitted via: dBpowerAMP V4.0
#
DISCID=8d0b2d0c
DTITLE=Marc Broussard - S.O.S: Save Our Souls
DYEAR=1900
DGENRE=Blues
TTITLE0=You Met Your Match
TTITLE1=If I Could Build My Whole World Around You
TTITLE2=Harry Hippie
TTITLE3=Let The Music Get Down In Your Soul
TTITLE4=I Love You More That You'll Ever Know
TTITLE5=Inner City Blues (Make Me Wanna Holler)
TTITLE6=Love And Happiness
TTITLE7=I've Been Loving You Too Long
TTITLE8=Respect Yourself
TTITLE9=Yes We Can, Can
TTITLE10=Cone In From The Cold
TTITLE11=Bonus Track
EXTD=Marc Broussard S.O.S: Save Our Soul 2007 Vangaurd Records
EXTT0=
EXTT1=
EXTT2=
EXTT3=
EXTT4=
EXTT5=
EXTT6=
EXTT7=
EXTT8=
EXTT9=
EXTT10=
EXTT11=
PLAYORDER=
